<?xml version="1.0" standalone="no"?>
<!DOCTYPE svg PUBLIC "-//W3C//DTD SVG 1.1//EN" "http://www.w3.org/Graphics/SVG/1.1/DTD/svg11.dtd" >
<svg xmlns="http://www.w3.org/2000/svg">
<metadata></metadata>
<defs>
<font id="gthblack" horiz-adv-x="1024" >
<font-face units-per-em="2048" ascent="1638" descent="-410" />
<missing-glyph horiz-adv-x="567" />
<glyph horiz-adv-x="0" />
<glyph unicode="&#xd;" horiz-adv-x="0" />
<glyph horiz-adv-x="0" />
<glyph horiz-adv-x="0" />
<glyph unicode=" "  horiz-adv-x="567" />
<glyph unicode="&#x09;" horiz-adv-x="567" />
<glyph unicode="&#xa0;" horiz-adv-x="567" />
<glyph unicode="!" horiz-adv-x="663" d="M111 1260v174h442v-174l-119 -793h-203zM131 0v348h404v-348h-404z" />
<glyph unicode="&#x22;" horiz-adv-x="1099" d="M70 698l47 736h415v-11l-258 -725h-204zM596 698l45 736h418v-11l-260 -725h-203z" />
<glyph unicode="#" horiz-adv-x="1445" d="M61 276v330h213l41 232h-186v327h242l47 269h297l-47 -269h260l47 269h295l-47 -269h161v-327h-217l-41 -232h191v-330h-246l-47 -276h-295l47 276h-260l-47 -276h-297l47 276h-158zM561 594h279l45 256h-281z" />
<glyph unicode="$" horiz-adv-x="1363" d="M51 207l185 272q100 -68 192 -110.5t188 -59.5v248q-123 29 -216 65.5t-155.5 89t-94 123t-31.5 166.5v5q0 180 127 295.5t362 132.5v118h213v-122q127 -16 232.5 -56.5t199.5 -101.5l-168 -277q-63 45 -133.5 77t-140.5 48v-243q121 -29 213 -66t153.5 -89t92 -123 t30.5 -165v-4q0 -94 -34.5 -169t-98 -130t-152.5 -88t-198 -43v-201h-213v203q-154 16 -295 68.5t-258 136.5zM479 1032q0 -41 28 -67.5t111 -49.5v222q-76 -4 -107.5 -32t-31.5 -69v-4zM809 299q137 12 137 104v5q0 41 -28.5 67.5t-108.5 48.5v-225z" />
<glyph unicode="%" horiz-adv-x="1841" d="M72 1065v4q0 80 26.5 149.5t74.5 122t116.5 83t152.5 30.5t152 -29.5t116 -82t74.5 -122t26.5 -149.5v-4q0 -78 -26.5 -147.5t-76 -122t-118 -83t-150.5 -30.5t-149.5 29.5t-116.5 82t-75.5 122t-26.5 147.5zM229 0l605 772l501 662h277l-611 -781l-495 -653h-277z M322 1067q0 -68 34.5 -114t85.5 -46q53 0 86 45t33 113v4q0 70 -34 116t-87 46t-85.5 -45t-32.5 -115v-4zM1030 362v5q0 80 26.5 149.5t75 121.5t117 83t152.5 31t151.5 -30t115.5 -82t74.5 -121.5t26.5 -149.5v-4q0 -78 -26.5 -149t-75.5 -123t-117.5 -82.5t-150.5 -30.5 q-84 0 -151.5 30.5t-116 82.5t-75 122t-26.5 147zM1280 365q0 -68 35 -114t86 -46q53 0 86 45t33 112v5q0 70 -34 115.5t-87 45.5q-55 0 -87 -45t-32 -114v-4z" />
<glyph unicode="&#x26;" horiz-adv-x="1429" d="M45 391v4q0 268 291 400q-51 72 -72.5 138t-21.5 138v4q0 78 30.5 147.5t88 123t141.5 85t188 31.5q98 0 177 -28.5t134.5 -77.5t85 -115.5t29.5 -144.5v-4q0 -135 -76.5 -225.5t-203.5 -147.5l159 -158q35 51 69 108.5t66 118.5l263 -131q-45 -82 -91.5 -157.5 t-97.5 -145.5l193 -190l-269 -193l-147 150q-92 -68 -196.5 -107t-229.5 -39q-109 0 -202 29t-161.5 82t-107.5 130t-39 175zM440 410q0 -63 47 -102.5t121 -39.5q43 0 87 16.5t85 45.5l-237 241q-53 -33 -78 -73.5t-25 -83.5v-4zM575 1059q0 -41 18.5 -79t55.5 -85 q152 68 152 176v4q0 53 -31 84t-80 31q-51 0 -83 -35t-32 -92v-4z" />
<glyph unicode="'" horiz-adv-x="581" d="M70 698l47 736h424v-11l-260 -725h-211z" />
<glyph unicode="(" horiz-adv-x="911" d="M92 588q0 156 39 283.5t115 234t187.5 195t254.5 163.5l162 -239q-98 -68 -170 -138.5t-118 -147.5t-68.5 -164t-22.5 -187q0 -201 90 -350.5t289 -286.5l-162 -240q-143 76 -254.5 164t-187.5 194.5t-115 234.5t-39 284z" />
<glyph unicode=")" horiz-adv-x="911" d="M63 -49q197 137 287 286.5t90 350.5q0 100 -22.5 187t-68.5 164t-116.5 147.5t-169.5 138.5l160 239q143 -76 255 -164t187.5 -194.5t115.5 -234.5t40 -283q0 -156 -40 -284t-115.5 -234.5t-187 -194.5t-255.5 -164z" />
<glyph unicode="*" horiz-adv-x="870" d="M57 975l262 92l-262 92l113 189l209 -181l-51 271h215l-51 -271l210 181l111 -189l-260 -92l260 -92l-111 -191l-210 181l51 -271h-215l51 271l-209 -181z" />
<glyph unicode="+" horiz-adv-x="1310" d="M117 549v344h360v356h357v-356h360v-344h-360v-356h-357v356h-360z" />
<glyph unicode="," horiz-adv-x="581" d="M41 -188q104 10 156.5 59t48.5 133h-156v399h404v-325q0 -115 -30 -193t-85 -126t-133 -71.5t-172 -25.5z" />
<glyph unicode="-" horiz-adv-x="835" d="M82 471v340h672v-340h-672z" />
<glyph unicode="." horiz-adv-x="581" d="M90 0v399h404v-399h-404z" />
<glyph unicode="/" horiz-adv-x="1095" d="M-78 -262l907 1896h316l-907 -1896h-316z" />
<glyph unicode="0" horiz-adv-x="1495" d="M84 713v4q0 152 47 288t133 237t209 160.5t277 59.5t275.5 -58t207.5 -159.5t132 -237t46 -286.5v-4q0 -152 -46 -288t-133 -237.5t-210 -161t-277 -59.5t-275.5 58.5t-207.5 160t-132 236.5t-46 287zM483 717q0 -86 19.5 -159t54.5 -125t84.5 -80.5t108.5 -28.5 t108 28.5t83 80.5t52.5 123t18.5 157v4q0 86 -19.5 158.5t-54.5 125t-84 82t-109 29.5q-59 0 -107 -28.5t-83 -81t-53.5 -124t-18.5 -157.5v-4z" />
<glyph unicode="1" horiz-adv-x="864" d="M16 1325l420 119h289v-1444h-391v1075l-242 -57z" />
<glyph unicode="2" horiz-adv-x="1277" d="M68 0v299l536 410q102 78 144.5 135t42.5 123q0 70 -44.5 108.5t-117.5 38.5q-72 0 -136.5 -45t-148.5 -141l-268 223q57 74 116.5 131t129 96t151.5 59.5t186 20.5q117 0 214.5 -33.5t167 -93t108.5 -144.5t39 -186v-4q0 -86 -21.5 -153.5t-63.5 -126t-104.5 -111.5 t-142.5 -110l-246 -172h592v-324h-1134z" />
<glyph unicode="3" horiz-adv-x="1271" d="M37 225l252 250q78 -78 159.5 -121t182.5 -43q86 0 134 40t48 106v4q0 70 -59.5 108.5t-173.5 38.5h-168l-56 207l328 297h-547v322h1034v-283l-342 -295q76 -16 143.5 -47t119 -79t80 -116.5t28.5 -160.5v-4q0 -109 -42 -197t-115.5 -150.5t-175 -96.5t-220.5 -34 q-209 0 -356.5 69t-253.5 185z" />
<glyph unicode="4" horiz-adv-x="1411" d="M29 559l743 885h399v-869h183v-296h-183v-279h-383v279h-696zM444 573h344v414z" />
<glyph unicode="5" horiz-adv-x="1290" d="M41 199l227 266q86 -74 171 -115t177 -41q98 0 153.5 45t55.5 123v4q0 78 -58 122t-153 44q-66 0 -122 -20.5t-107 -51.5l-235 134l40 725h959v-328h-645l-12 -217q49 23 103 37t126 14q96 0 185 -27.5t156.5 -83t108.5 -141.5t41 -203v-4q0 -119 -44 -213t-121.5 -160.5 t-186 -101.5t-239.5 -35q-190 0 -328.5 61.5t-251.5 166.5z" />
<glyph unicode="6" horiz-adv-x="1355" d="M84 672v4q0 168 41 311t124 248.5t208 166t293 60.5q152 0 262 -40t215 -117l-187 -279q-66 49 -132 79t-152 30q-78 0 -128 -32t-81 -79t-44.5 -100.5t-17.5 -96.5q70 53 143.5 82t166.5 29q94 0 180 -29.5t150.5 -86t103.5 -140.5t39 -190v-5q0 -121 -45 -216 t-122 -161.5t-181.5 -102.5t-221.5 -36q-154 0 -257 43t-181 121q-80 80 -128 208t-48 329zM479 467q0 -78 54.5 -132t148.5 -54t147.5 53t53.5 131v4q0 78 -55.5 131t-149.5 53t-146.5 -52t-52.5 -130v-4z" />
<glyph unicode="7" horiz-adv-x="1257" d="M94 1100v334h1104v-299l-633 -1135h-438l631 1100h-664z" />
<glyph unicode="8" horiz-adv-x="1290" d="M57 395v4q0 131 63.5 213t180.5 131q-82 47 -138.5 122t-56.5 192v4q0 86 39 158.5t110 126t170 83t220 29.5t220.5 -29.5t171 -83t110.5 -126t39 -158.5v-4q0 -117 -56.5 -191.5t-140.5 -122.5q55 -25 100.5 -56.5t77 -72.5t50 -93t18.5 -118v-4q0 -96 -44 -175 t-122 -134t-186.5 -85t-237.5 -30t-236.5 31t-186.5 86t-122 132t-43 171zM438 434q0 -66 53.5 -114t153.5 -48t153.5 48.5t53.5 113.5v4q0 72 -57.5 115t-149.5 43t-149.5 -43t-57.5 -115v-4zM469 1010q0 -68 48 -113t128 -45t129 45t49 113v4q0 59 -47 105t-131 46 q-82 0 -129 -46t-47 -105v-4z" />
<glyph unicode="9" horiz-adv-x="1355" d="M88 938v4q0 119 43 215t120 164t181.5 104.5t226.5 36.5q156 0 257.5 -42t183.5 -124q78 -78 125 -205.5t47 -326.5v-4q0 -176 -43 -320.5t-127 -249t-208 -162t-284 -57.5q-162 0 -281.5 46t-219.5 124l186 275q76 -59 148.5 -87t158.5 -28q78 0 129 30.5t82 76t44 97.5 t17 95q-66 -61 -142.5 -89t-162.5 -28q-104 0 -192 32t-152.5 90.5t-100.5 143.5t-36 189zM473 956q0 -82 55.5 -135t149.5 -53t147.5 54.5t53.5 131.5v4q0 84 -55.5 140.5t-149.5 56.5t-147.5 -55.5t-53.5 -138.5v-5z" />
<glyph unicode=":" horiz-adv-x="602" d="M100 0v399h404v-399h-404zM100 709v399h404v-399h-404z" />
<glyph unicode=";" horiz-adv-x="602" d="M51 -193q104 10 156.5 59.5t48.5 133.5h-156v399h404v-325q0 -115 -30 -193t-85 -126t-133 -71.5t-172 -25.5zM100 709v399h404v-399h-404z" />
<glyph unicode="&#x3c;" horiz-adv-x="1310" d="M129 541v360l1018 406v-361l-670 -225l670 -223v-363z" />
<glyph unicode="=" horiz-adv-x="1310" d="M129 281v335h1053v-335h-1053zM129 825v338h1053v-338h-1053z" />
<glyph unicode="&#x3e;" horiz-adv-x="1310" d="M164 135v361l670 223l-670 225v363l1018 -406v-360z" />
<glyph unicode="?" horiz-adv-x="1107" d="M20 1241q94 94 223.5 154.5t307.5 60.5q113 0 207 -29.5t161.5 -85t105.5 -135.5t38 -180v-4q0 -96 -31 -167t-84 -121t-125.5 -83t-158.5 -53l-25 -131h-246l-53 344l18 16q178 14 250 56.5t72 107.5v4q0 53 -41 83t-115 30q-72 0 -148.5 -35t-150.5 -100zM307 0v348 h404v-348h-404z" />
<glyph unicode="@" horiz-adv-x="1976" d="M94 563q0 184 68.5 348t190.5 287t288 193.5t360 70.5q190 0 351 -65.5t280 -175t185.5 -254t66.5 -301.5q0 -139 -37 -243t-97 -171.5t-139 -101t-163 -33.5q-129 0 -205 46t-113 109q-57 -66 -129.5 -107.5t-171.5 -41.5q-80 0 -148.5 28.5t-118.5 82t-78.5 129 t-28.5 169.5q0 111 36.5 207.5t99 169t144.5 114.5t174 42q100 0 167 -44t108 -108l24 125l316 -49l-94 -528q-8 -41 -9 -90q0 -51 35 -86t98 -35q102 0 173 105.5t71 310.5q0 141 -59.5 271t-165 228.5t-251.5 156.5t-321 58q-180 0 -330.5 -64.5t-260 -175t-170 -259 t-60.5 -318.5q0 -172 60.5 -320.5t170 -258t261 -172t336.5 -62.5q154 0 269.5 35t231.5 102l41 -65q-119 -72 -250.5 -113t-291.5 -41q-199 0 -367 69.5t-289 191.5t-189.5 285t-68.5 349zM782 557q0 -78 42 -119t108 -41q37 0 69.5 14.5t57.5 39.5q33 33 52 80t19 102 q0 74 -43 116t-106 42q-74 0 -129 -56q-33 -33 -51.5 -79t-18.5 -99z" />
<glyph unicode="A" horiz-adv-x="1628" d="M14 0l609 1444h383l610 -1444h-426l-103 258h-555l-102 -258h-416zM649 567h322l-160 406z" />
<glyph unicode="B" horiz-adv-x="1464" d="M127 0v1434h735q135 0 231.5 -32t159.5 -95q45 -45 69 -102.5t24 -131.5v-4q0 -125 -62.5 -201.5t-159.5 -117.5q131 -43 208 -124t77 -227v-4q0 -186 -142.5 -290.5t-400.5 -104.5h-739zM514 319h307q92 0 141.5 34t49.5 98v4q0 59 -47 94t-148 35h-303v-265zM514 862 h250q92 0 141 31t49 94v4q0 123 -180 123h-260v-252z" />
<glyph unicode="C" horiz-adv-x="1497" d="M80 713v4q0 156 56.5 292t157.5 237.5t238.5 158.5t301.5 57q111 0 200.5 -21.5t164.5 -61.5t135.5 -94t107.5 -120l-299 -231q-61 76 -135 122t-179 46q-76 0 -138 -30t-107 -82t-71 -121.5t-26 -147.5v-4q0 -80 26 -150.5t71 -122t107.5 -81t137.5 -29.5q55 0 101.5 12 t84.5 36t71.5 55.5t66.5 70.5l299 -213q-51 -70 -111.5 -129.5t-137.5 -102.5t-171 -67.5t-213 -24.5q-154 0 -289 55.5t-234 155t-157.5 235.5t-58.5 296z" />
<glyph unicode="D" horiz-adv-x="1568" d="M127 0v1434h555q190 0 341 -52.5t254 -146.5t157.5 -224t54.5 -286v-4q0 -156 -55.5 -288t-160 -228t-256 -150.5t-343.5 -54.5h-547zM524 352h162q180 0 288.5 94.5t108.5 268.5v4q0 174 -108.5 269t-288.5 95h-162v-731z" />
<glyph unicode="E" horiz-adv-x="1368" d="M127 0v1434h1153v-336h-760v-219h688v-314h-688v-227h770v-338h-1163z" />
<glyph unicode="F" horiz-adv-x="1329" d="M127 0v1434h1147v-349h-750v-243h678v-330h-678v-512h-397z" />
<glyph unicode="G" horiz-adv-x="1574" d="M80 713v4q0 156 58.5 292t160.5 237.5t243.5 158.5t307.5 57q190 0 328.5 -54t253.5 -153l-234 -282q-78 66 -157.5 100.5t-188.5 34.5q-78 0 -144.5 -30.5t-115.5 -83t-78 -124t-29 -153.5v-4q0 -88 29 -161t81 -126t122.5 -83t156.5 -30q74 0 130.5 15.5t99.5 44.5v174 h-281v291h658v-643q-115 -96 -269.5 -160t-353.5 -64q-168 0 -310 54.5t-246.5 152.5t-163 234.5t-58.5 300.5z" />
<glyph unicode="H" horiz-adv-x="1558" d="M127 0v1434h397v-537h510v537h398v-1434h-398v545h-510v-545h-397z" />
<glyph unicode="I" horiz-adv-x="669" d="M137 0v1434h398v-1434h-398z" />
<glyph unicode="J" horiz-adv-x="1155" d="M8 217l256 242q53 -63 105.5 -98t119.5 -35q74 0 118 50t44 150v908h396v-910q0 -135 -35 -233t-107 -170t-171 -109t-222 -37q-94 0 -170 18.5t-137.5 51.5t-109.5 77t-87 95z" />
<glyph unicode="K" horiz-adv-x="1495" d="M127 0v1434h397v-582l496 582h469l-543 -615l561 -819h-475l-362 532l-146 -159v-373h-397z" />
<glyph unicode="L" horiz-adv-x="1263" d="M127 0v1434h397v-1086h695v-348h-1092z" />
<glyph unicode="M" horiz-adv-x="1777" d="M127 0v1434h420l342 -555l342 555h420v-1434h-396v823l-366 -561h-8l-365 559v-821h-389z" />
<glyph unicode="N" horiz-adv-x="1607" d="M127 0v1434h371l589 -758v758h394v-1434h-346l-615 786v-786h-393z" />
<glyph unicode="O" horiz-adv-x="1701" d="M80 713v4q0 154 58.5 290t163 237.5t245.5 159.5t307 58t307.5 -58t243.5 -158.5t160.5 -236t58.5 -288.5v-4q0 -154 -58.5 -290t-163 -237.5t-245.5 -160t-307 -58.5t-307.5 58.5t-243.5 159t-160.5 235.5t-58.5 289zM485 717q0 -78 27 -147.5t76 -123t116.5 -85 t149.5 -31.5t148.5 30.5t113.5 83t74 122t27 147.5v4q0 78 -27 148.5t-75 123.5t-115.5 84t-149.5 31t-149.5 -31t-114.5 -83t-74 -121.5t-27 -147.5v-4z" />
<glyph unicode="P" horiz-adv-x="1378" d="M127 0v1434h616q135 0 245 -34t187.5 -98.5t119.5 -157.5t42 -212v-4q0 -127 -46 -224.5t-128 -163t-194.5 -98t-245.5 -32.5h-199v-410h-397zM524 721h191q104 0 165.5 51t61.5 137v4q0 92 -61.5 139.5t-167.5 47.5h-189v-379z" />
<glyph unicode="Q" horiz-adv-x="1701" d="M80 713v4q0 154 58.5 290t163 237.5t245.5 159.5t307 58t307.5 -58t243.5 -158.5t160.5 -236t58.5 -288.5v-4q0 -115 -34 -218.5t-93 -193.5l148 -125l-201 -223l-158 141q-92 -61 -202.5 -94t-233.5 -33q-166 0 -307.5 58.5t-243.5 159t-160.5 235.5t-58.5 289zM485 713 q0 -78 27 -148.5t75 -124t115.5 -85t151.5 -31.5q74 0 143 26l-198 170l200 225l195 -178q25 68 25 144v4q0 78 -27 148.5t-76 123.5t-116.5 85t-149.5 32t-149.5 -32t-114.5 -85t-74 -122.5t-27 -147.5v-4z" />
<glyph unicode="R" horiz-adv-x="1472" d="M127 0v1434h678q166 0 280.5 -41t186.5 -113q127 -127 127 -334v-4q0 -166 -80 -275.5t-215 -166.5l342 -500h-457l-289 434h-176v-434h-397zM524 745h264q100 0 156.5 46.5t56.5 123.5v5q0 86 -58 129t-157 43h-262v-347z" />
<glyph unicode="S" horiz-adv-x="1335" d="M18 213l222 264q219 -172 465 -172q82 0 123.5 25.5t41.5 72.5v5q0 23 -10 41t-37.5 34.5t-75 31.5t-120.5 32q-115 27 -213.5 59.5t-171 81.5t-114.5 123t-42 184v4q0 100 38 184.5t110.5 146t175 95t231.5 33.5q184 0 328.5 -48t261.5 -142l-199 -281 q-98 72 -201.5 106.5t-199.5 34.5q-72 0 -108 -25.5t-36 -66.5v-4q0 -25 11.5 -43t39 -33.5t76 -31t123.5 -31.5q123 -27 221.5 -62.5t168 -87t106.5 -124t37 -173.5v-4q0 -111 -42 -196.5t-118 -146t-182.5 -92.5t-237.5 -32q-193 0 -364.5 59.5t-307.5 178.5z" />
<glyph unicode="T" horiz-adv-x="1351" d="M49 1085v349h1256v-349h-431v-1085h-397v1085h-428z" />
<glyph unicode="U" horiz-adv-x="1552" d="M111 629v805h401v-797q0 -156 71.5 -230.5t192.5 -74.5q123 0 194.5 71.5t71.5 223.5v807h402v-795q0 -172 -48 -298t-135 -208t-211 -121t-278 -39q-152 0 -274.5 39t-208.5 120t-132 205t-46 292z" />
<glyph unicode="V" horiz-adv-x="1556" d="M14 1434h443l325 -908l328 908h434l-581 -1444h-369z" />
<glyph unicode="W" horiz-adv-x="2287" d="M31 1434h420l249 -830l277 834h342l276 -834l250 830h412l-479 -1444h-346l-287 825l-289 -825h-346z" />
<glyph unicode="X" horiz-adv-x="1499" d="M23 0l491 729l-471 705h457l252 -404l258 404h446l-471 -699l492 -735h-457l-275 434l-276 -434h-446z" />
<glyph unicode="Y" horiz-adv-x="1480" d="M-4 1434h453l294 -523l297 523h445l-545 -891v-543h-397v537z" />
<glyph unicode="Z" horiz-adv-x="1429" d="M84 0v289l719 811h-694v334h1241v-287l-719 -811h719v-336h-1266z" />
<glyph unicode="[" horiz-adv-x="937" d="M137 -266v1700h707v-265h-361v-1171h361v-264h-707z" />
<glyph unicode="\" horiz-adv-x="1095" d="M-49 1634h315l908 -1896h-316z" />
<glyph unicode="]" horiz-adv-x="937" d="M94 -2h361v1171h-361v265h707v-1700h-707v264z" />
<glyph unicode="^" d="M86 1010l295 422h262l295 -422h-272l-156 198l-156 -198h-268z" />
<glyph unicode="_" horiz-adv-x="1228" d="M-4 -90h1237v-238h-1237v238z" />
<glyph unicode="`" d="M182 1464l361 117l211 -377h-271z" />
<glyph unicode="a" horiz-adv-x="1226" d="M51 317v5q0 86 32 151.5t88 109.5t136 65.5t178 21.5q78 0 149 -12.5t118 -30.5v18q0 88 -54.5 135t-167.5 47q-88 0 -159.5 -16t-147.5 -45l-80 272q94 39 200 62.5t249 23.5q150 0 253 -34.5t169 -100.5q63 -61 91 -148t28 -204v-637h-383v117q-59 -63 -138 -102.5 t-190 -39.5q-80 0 -147.5 22.5t-116.5 67t-78 108t-29 144.5zM424 340q0 -57 39 -89t98 -32q86 0 140.5 49t54.5 133v52q-31 12 -71 20t-83 8q-86 0 -132 -36.5t-46 -100.5v-4z" />
<glyph unicode="b" horiz-adv-x="1384" d="M104 0v1495h390v-534q29 35 61.5 65.5t72.5 54t90 38t111 14.5q98 0 187.5 -40t157 -114t107.5 -180.5t40 -239.5v-4q0 -135 -40 -242.5t-106.5 -182.5t-156 -115t-187.5 -40q-63 0 -113 13.5t-91 35t-74 51t-59 60.5v-135h-390zM485 553q0 -55 17.5 -101t48.5 -80 t73 -52.5t89 -18.5t88 18.5t71.5 51t49 80t18.5 102.5v4q0 55 -18.5 101.5t-49 80t-71.5 52t-88 18.5t-89 -18.5t-73 -52t-48.5 -80t-17.5 -101.5v-4z" />
<glyph unicode="c" horiz-adv-x="1165" d="M61 549v4q0 117 43 222.5t122 184t187.5 124.5t239.5 46q172 0 287 -67.5t186 -177.5l-262 -197q-41 53 -89 85t-118 32q-47 0 -88 -19.5t-69.5 -53.5t-45 -79t-16.5 -96v-4q0 -53 16.5 -99t45 -80t69.5 -53.5t90 -19.5q72 0 120 30.5t93 84.5l261 -189 q-78 -115 -194 -184.5t-298 -69.5q-127 0 -232.5 46.5t-183.5 124t-121 183t-43 222.5z" />
<glyph unicode="d" horiz-adv-x="1384" d="M63 549v4q0 135 40 242.5t106.5 182.5t156 115t187.5 40q125 0 205 -48.5t133 -111.5v522h389v-1495h-389v147q-29 -35 -61.5 -65.5t-72.5 -54t-90.5 -38t-111.5 -14.5q-98 0 -187 40t-157 114t-108 180.5t-40 239.5zM444 553q0 -55 18.5 -101t49.5 -80t72 -52.5 t88 -18.5t89 18.5t72.5 52.5t48 80t17.5 101v4q0 55 -17.5 101.5t-48 80t-72.5 52t-89 18.5t-88 -18.5t-72 -52t-49.5 -80t-18.5 -101.5v-4z" />
<glyph unicode="e" horiz-adv-x="1241" d="M61 549v4q0 121 41 226.5t116 184t177.5 124t225.5 45.5q143 0 247.5 -49.5t173 -132.5t102.5 -192.5t34 -232.5v-38.5t-2 -41.5h-742q23 -92 85.5 -137t154.5 -45q72 0 129 26.5t117 86.5l215 -178q-80 -102 -197 -164t-283 -62q-131 0 -239.5 42t-187 118t-123 181.5 t-44.5 234.5zM428 645h387q-10 92 -62.5 146.5t-131.5 54.5q-78 0 -127.5 -54.5t-65.5 -146.5z" />
<glyph unicode="f" horiz-adv-x="827" d="M45 797v307h129v22q0 193 94 287q51 51 121 73.5t170 22.5q88 0 147.5 -8t104.5 -22v-275q-35 10 -68.5 16.5t-76.5 6.5q-111 0 -111 -105v-26h256v-299h-248v-797h-389v797h-129z" />
<glyph unicode="g" horiz-adv-x="1384" d="M63 612v4q0 119 39 215.5t105.5 163t152.5 102.5t183 36q127 0 206.5 -45.5t141.5 -110.5v131h389v-842q0 -154 -35 -261t-108 -181q-78 -78 -196 -117t-292 -39q-160 0 -296 33t-257 94l125 258q90 -49 182.5 -76.5t204.5 -27.5q145 0 217 69.5t72 202.5v43 q-59 -68 -139 -117t-201 -49q-102 0 -192.5 36t-157 102.5t-105.5 162t-39 213.5zM444 610q0 -92 64 -152.5t164 -60.5t163.5 61.5t63.5 153.5v4q0 92 -64.5 153.5t-162.5 61.5q-100 0 -164 -61t-64 -156v-4z" />
<glyph unicode="h" horiz-adv-x="1298" d="M104 0v1495h390v-539q53 70 133 123.5t198 53.5q178 0 277.5 -109t99.5 -299v-725h-387v600q0 92 -43 140t-115 48t-117.5 -48t-45.5 -140v-600h-390z" />
<glyph unicode="i" horiz-adv-x="616" d="M106 1208v287h404v-287h-404zM115 0v1108h387v-1108h-387z" />
<glyph unicode="j" horiz-adv-x="618" d="M-53 -61q12 -2 25.5 -3.5t25.5 -1.5q57 0 87 30t30 102v1042h387v-1059q0 -104 -26.5 -178t-77 -119t-123 -65.5t-166.5 -20.5q-47 0 -87 4t-75 11v258zM106 1208v287h404v-287h-404z" />
<glyph unicode="k" horiz-adv-x="1234" d="M104 0v1495h390v-758l301 371h440l-385 -442l395 -666h-430l-221 379l-100 -117v-262h-390z" />
<glyph unicode="l" horiz-adv-x="616" d="M115 0v1495h387v-1495h-387z" />
<glyph unicode="m" horiz-adv-x="1988" d="M104 0v1108h390v-152q53 70 133 123.5t196 53.5q111 0 193 -47.5t127 -133.5q72 84 160 132.5t210 48.5q178 0 278.5 -105.5t100.5 -300.5v-727h-389v602q0 92 -41 139t-110 47q-70 0 -115 -47t-45 -139v-602h-387v602q0 92 -42 139t-112 47t-113.5 -47t-43.5 -139v-602 h-390z" />
<glyph unicode="n" horiz-adv-x="1298" d="M104 0v1108h390v-156q27 35 59.5 68t73.5 57.5t90 40t108 15.5q178 0 277.5 -109t99.5 -299v-725h-387v600q0 92 -43 140t-115 48t-117.5 -48t-45.5 -140v-600h-390z" />
<glyph unicode="o" horiz-adv-x="1343" d="M61 549v4q0 119 46.5 224.5t127 184t193.5 125t246 46.5t244.5 -46.5t193.5 -124t127 -182t45 -223.5v-4q0 -119 -46 -224.5t-128 -184t-194.5 -125t-245.5 -46.5t-244 45t-192.5 124t-127 183.5t-45.5 223.5zM438 553q0 -51 17.5 -96t49.5 -79t75 -54.5t94 -20.5 q53 0 96 19.5t73.5 53.5t47 79t16.5 94v4q0 51 -17.5 97t-49 80t-75.5 54.5t-95 20.5q-53 0 -96.5 -19.5t-73 -53.5t-46 -79t-16.5 -96v-4z" />
<glyph unicode="p" horiz-adv-x="1384" d="M104 -328v1436h390v-147q29 35 61.5 65.5t72.5 54t90 38t111 14.5q98 0 187.5 -40t157 -114t107.5 -180.5t40 -239.5v-4q0 -135 -40 -242.5t-106.5 -182.5t-155.5 -115t-188 -40q-63 0 -113 13.5t-91 35t-74 51t-59 60.5v-463h-390zM485 553q0 -55 17.5 -101t48.5 -80 t73 -52.5t89 -18.5t88 18.5t71.5 51t49 80t18.5 102.5v4q0 55 -18.5 101.5t-49 80t-71.5 52t-88 18.5t-89 -18.5t-73 -52t-48.5 -80t-17.5 -101.5v-4z" />
<glyph unicode="q" horiz-adv-x="1384" d="M63 549v4q0 135 40 242.5t106.5 182.5t156 115t187.5 40q125 0 205 -48.5t133 -111.5v135h389v-1436h-389v475q-29 -35 -61.5 -65.5t-72.5 -54t-90.5 -38t-111.5 -14.5q-98 0 -187 40t-157 114t-108 180.5t-40 239.5zM444 553q0 -55 18.5 -101t49.5 -80t72 -52.5 t88 -18.5t89 18.5t72.5 52.5t48 80t17.5 101v4q0 55 -17.5 101.5t-48 80t-72.5 52t-89 18.5t-88 -18.5t-72 -52t-49.5 -80t-18.5 -101.5v-4z" />
<glyph unicode="r" horiz-adv-x="876" d="M104 0v1108h390v-223q47 113 129 181q74 61 195 61q13 0 26 -1v-409h-33q-154 0 -235.5 -89t-81.5 -282v-346h-390z" />
<glyph unicode="s" horiz-adv-x="1052" d="M23 141l145 234q96 -63 194.5 -95t184.5 -32q100 0 100 59v4q0 35 -46 54.5t-134 42.5q-82 23 -153.5 49t-125 66t-84 96.5t-30.5 140.5v4q0 88 33.5 156.5t93 114.5t140.5 70.5t177 24.5q123 0 242 -33.5t215 -95.5l-133 -245q-86 49 -174 76.5t-154 27.5 q-45 0 -67.5 -15.5t-22.5 -39.5v-4q0 -33 47 -53.5t133 -45.5q82 -25 153.5 -52t125 -67t84 -96.5t30.5 -136.5v-4q0 -92 -32.5 -160.5t-92 -115.5t-143.5 -71t-184 -24q-141 0 -274.5 41t-247.5 125z" />
<glyph unicode="t" horiz-adv-x="882" d="M43 797v311h131v281h387v-281h258v-311h-258v-377q0 -59 26.5 -85t80.5 -26q39 0 75.5 10.5t71.5 26.5v-303q-53 -29 -120.5 -47.5t-149.5 -18.5q-176 0 -273.5 84t-97.5 283v453h-131z" />
<glyph unicode="u" horiz-adv-x="1298" d="M96 385v723h389v-600q0 -92 43 -139t115 -47t118 47t46 139v600h387v-1108h-387v154q-27 -35 -59.5 -67t-73.5 -56.5t-90.5 -40t-108.5 -15.5q-178 0 -278.5 110t-100.5 300z" />
<glyph unicode="v" horiz-adv-x="1280" d="M20 1108h410l213 -647l215 647h402l-443 -1116h-354z" />
<glyph unicode="w" horiz-adv-x="1763" d="M27 1108h379l145 -557l172 561h319l172 -565l150 561h375l-342 -1116h-336l-180 577l-185 -577h-331z" />
<glyph unicode="x" horiz-adv-x="1206" d="M16 0l373 557l-364 551h417l164 -277l166 277h410l-365 -547l373 -561h-418l-172 289l-174 -289h-410z" />
<glyph unicode="y" horiz-adv-x="1282" d="M25 1108h405l221 -668l209 668h400l-406 -1081q-37 -98 -77 -167t-89 -112t-111.5 -62.5t-144.5 -19.5q-104 0 -190 25.5t-164 70.5l119 273q47 -29 92 -44.5t78 -15.5q29 0 50 9.5t42 35.5z" />
<glyph unicode="z" horiz-adv-x="1153" d="M68 0v256l510 545h-492v307h1008v-254l-514 -545h514v-309h-1026z" />
<glyph unicode="{" horiz-adv-x="1003" d="M70 459v258h32q121 0 182.5 42t61.5 159q0 12 -1 33.5t-2 44t-2 42t-1 31.5q0 84 26.5 149.5t89 113.5t166 81t257.5 51l59 -227q-82 -18 -132 -38.5t-77 -47.5t-36 -61.5t-9 -81.5q0 -27 3 -70t3 -76q0 -113 -58.5 -177t-170.5 -97q113 -31 171 -96.5t58 -178.5 q0 -33 -3 -74.5t-3 -68.5q0 -47 9 -83t36 -62.5t77 -47t132 -38.5l-59 -228q-154 18 -257.5 51t-166 81t-89 114t-26.5 149q0 12 1 32t2 42.5t2 44t1 33.5q0 117 -61.5 159t-182.5 42h-32z" />
<glyph unicode="|" horiz-adv-x="727" d="M215 -262v1896h297v-1896h-297z" />
<glyph unicode="}" horiz-adv-x="1003" d="M66 -61q82 18 132 38.5t77.5 47t37 62.5t9.5 83q0 27 -3.5 69t-3.5 74q0 113 58.5 178.5t169.5 96.5q-111 33 -169.5 97.5t-58.5 176.5q0 33 3.5 76t3.5 70q0 47 -9.5 81.5t-37 61.5t-78 47.5t-131.5 38.5l61 227q154 -18 256 -51t165.5 -81t90.5 -113.5t27 -149.5 q0 -12 -1 -31.5t-2 -42t-2.5 -44t-1.5 -33.5q0 -117 60.5 -159t181.5 -42h33v-258h-33q-121 0 -181.5 -42t-60.5 -159q0 -12 1.5 -33.5t2.5 -44t2 -42t1 -32.5q0 -84 -27 -149.5t-90.5 -113.5t-165.5 -80.5t-256 -51.5z" />
<glyph unicode="~" horiz-adv-x="1034" d="M86 502q33 154 90 229.5t164 75.5q49 0 99 -14.5t91 -30.5q41 -14 74 -24.5t55 -10.5q43 0 63.5 23.5t41.5 70.5l186 -51q-35 -154 -92.5 -228.5t-161.5 -74.5q-51 0 -101 13.5t-91 29.5t-73 26.5t-54 10.5q-43 0 -63.5 -23.5t-41.5 -72.5z" />
<glyph unicode="&#xa1;" horiz-adv-x="663" d="M111 0v174l120 793h203l119 -793v-174h-442zM131 1085v349h404v-349h-404z" />
<glyph unicode="&#xa2;" horiz-adv-x="1177" d="M66 725v4q0 119 42 222.5t118.5 181t183 122.5t237.5 50l25 141h235l-30 -178q86 -31 151.5 -82t108.5 -117l-240 -182q-23 25 -45.5 45t-48.5 37l-92 -514q111 18 190 116l238 -174q-74 -109 -187.5 -174t-273.5 -69l-29 -166h-235l35 198q-86 31 -156 83.5t-121 123 t-78.5 154.5t-27.5 178zM406 729q0 -86 28.5 -147.5t85.5 -96.5l92 521q-94 -14 -150 -93t-56 -180v-4z" />
<glyph unicode="&#xa3;" horiz-adv-x="1308" d="M90 0v238l154 57v244h-154v280h154v103q0 123 35.5 224t105.5 171q137 141 393 141q166 0 282 -58.5t193 -148.5l-239 -264q-47 55 -97.5 86t-111.5 31q-72 0 -117 -45q-49 -49 -49 -137v-103h442v-280h-442v-224h600v-315h-1149z" />
<glyph unicode="&#xa5;" horiz-adv-x="1449" d="M8 1434h451l268 -471l274 471h441l-428 -650h284v-245h-376v-103h376v-246h-376v-190h-392v190h-376v246h376v103h-376v245h280z" />
<glyph unicode="&#xa7;" horiz-adv-x="1282" d="M88 696v4q0 90 52.5 142.5t131.5 81.5q-96 78 -96 202v4q0 70 30 129.5t89 104.5t148 70.5t206 25.5q154 0 281 -46t205 -116l-158 -221q-78 55 -165 87t-171 32q-59 0 -85 -15.5t-26 -43.5v-4q0 -29 44 -49.5t155 -45.5q96 -23 181 -47t148.5 -58t100.5 -81t37 -113v-4 q0 -90 -52 -143t-134 -82q45 -35 70.5 -86t25.5 -115v-4q0 -68 -29.5 -128t-88 -105t-147.5 -72t-208 -27q-152 0 -279 46.5t-207 115.5l158 223q78 -55 166 -87.5t170 -32.5q61 0 87 16t26 45v4q0 29 -47.5 50.5t-151.5 43.5q-96 20 -181 46t-148.5 60t-100.5 81t-37 112z M385 750q0 -35 54.5 -58.5t152.5 -46.5q144 -37 203 -37q47 0 75.5 18.5t28.5 53.5v4q0 35 -54 59.5t-153 47.5q-74 16 -124 25t-79 9q-47 0 -75.5 -17t-28.5 -54v-4z" />
<glyph unicode="&#xa8;" d="M133 1204v291h330v-291h-330zM561 1204v291h332v-291h-332z" />
<glyph unicode="&#xa9;" horiz-adv-x="1699" d="M109 713v4q0 152 57 287t157.5 237t236.5 161.5t292 59.5t291 -59.5t234.5 -160.5t156.5 -235.5t57 -285.5v-4q0 -152 -57 -287t-157.5 -237.5t-236.5 -162t-292 -59.5t-291 59.5t-234.5 161t-156.5 235.5t-57 286zM195 713q0 -135 49 -255t137 -209t208 -141.5 t259 -52.5q141 0 261 52.5t208 142.5t138 211t50 256v4q0 135 -50 256t-137 210t-207 141t-259 52q-141 0 -261 -52t-208 -143t-138 -212t-50 -256v-4zM449 723v4q0 84 30.5 157.5t86 129t132 88.5t168.5 33q123 0 201 -44t131 -118l-166 -129q-33 41 -73.5 66.5t-96.5 25.5 q-84 0 -135 -60.5t-51 -146.5v-4q0 -86 51 -145.5t135 -59.5q61 0 101.5 26.5t74.5 67.5l166 -118q-57 -78 -137 -127.5t-207 -49.5q-90 0 -164.5 31t-130 85t-86 128t-30.5 160z" />
<glyph unicode="&#xaa;" horiz-adv-x="798" d="M86 555v156h610v-156h-610zM90 1001v5q0 94 65.5 142t174.5 48q41 0 81 -7t66 -18v9q0 100 -123 100q-47 0 -87 -8t-81 -25l-45 150q53 23 110.5 35t137.5 12q82 0 138.5 -19.5t93.5 -54.5q35 -35 50 -83t15 -111v-349h-211v66q-33 -35 -77 -56.5t-103 -21.5 q-88 0 -146.5 47t-58.5 139zM297 1014q0 -31 20.5 -48.5t53.5 -17.5q47 0 77.5 26.5t30.5 74.5v26q-16 6 -38.5 11.5t-47.5 5.5q-45 0 -70.5 -19.5t-25.5 -54.5v-4z" />
<glyph unicode="&#xab;" horiz-adv-x="1294" d="M61 500v98l357 434l252 -125l-242 -356l242 -356l-252 -127zM590 539v20l389 473l252 -125l-240 -356l240 -356l-252 -127z" />
<glyph unicode="&#xad;" horiz-adv-x="835" d="M82 471v340h672v-340h-672z" />
<glyph unicode="&#xae;" horiz-adv-x="753" d="M20 1094v2q0 74 28 138t76 113.5t113.5 78t139.5 28.5q76 0 140.5 -28.5t112.5 -77t75.5 -113t27.5 -137.5v-2q0 -74 -27.5 -138.5t-75.5 -113.5t-113.5 -78t-139.5 -29q-76 0 -140.5 29t-112.5 77t-76 112.5t-28 138.5zM61 1094q0 -66 24 -123.5t67 -100.5t100 -68.5 t125 -25.5t125 25.5t99 68.5t66.5 101.5t24.5 124.5v2q0 66 -23.5 123t-66.5 100t-100.5 68.5t-124.5 25.5q-68 0 -125 -25.5t-99 -68.5t-67 -101.5t-25 -123.5v-2zM217 915v377h182q74 0 119 -31.5t45 -97.5q0 -86 -76 -119l88 -129h-133l-73 109h-35v-109h-117zM334 1112 h59q53 0 53 41t-51 41h-61v-82z" />
<glyph unicode="&#xaf;" d="M129 1219v233h768v-233h-768z" />
<glyph unicode="&#xb0;" horiz-adv-x="966" d="M111 1083v4q0 74 30.5 140.5t81.5 116t119 78t141 28.5q74 0 141.5 -28.5t119 -78t82 -116t30.5 -140.5v-4q0 -74 -29.5 -140t-81 -115.5t-119 -78t-143.5 -28.5t-143.5 28.5t-118.5 78t-80.5 116t-29.5 139.5zM311 1083q0 -72 49 -123t123 -51t123 51.5t49 122.5v4 q0 35 -13 67t-36.5 55.5t-54.5 38t-68 14.5t-67.5 -14.5t-54 -38t-37 -55.5t-13.5 -67v-4z" />
<glyph unicode="&#xb1;" horiz-adv-x="1310" d="M125 0v287h1061v-287h-1061zM125 770v309l369 -2l-2 344h327l-2 -344l369 2v-309l-369 2l2 -344h-327l2 344z" />
<glyph unicode="&#xb2;" horiz-adv-x="819" d="M88 1509q59 78 136 124t194 46q137 0 219 -69.5t82 -179.5q0 -90 -42 -148.5t-128 -122.5l-158 -119h334v-186h-633v178l299 234q53 41 77 71.5t24 67.5q0 35 -25 56.5t-64 21.5q-43 0 -82.5 -25.5t-84.5 -77.5z" />
<glyph unicode="&#xb3;" horiz-adv-x="819" d="M61 961l123 147q47 -41 99.5 -64.5t109.5 -23.5q47 0 78 22.5t31 63.5q0 84 -137 84h-97l-30 117l204 168h-323v184h588v-164l-215 -170q96 -12 163.5 -64.5t67.5 -158.5q0 -61 -23.5 -111.5t-66.5 -86.5t-101.5 -54.5t-128.5 -18.5q-115 0 -196.5 35t-145.5 95z" />
<glyph unicode="&#xb4;" d="M270 1204l213 377l361 -117l-303 -260h-271z" />
<glyph unicode="&#xb6;" horiz-adv-x="1220" d="M47 938v4q0 119 43 210t121 153.5t188.5 95.5t245.5 33h449v-1434h-398v451h-43q-133 0 -243.5 31.5t-191.5 93t-126 152.5t-45 210z" />
<glyph unicode="&#xb7;" horiz-adv-x="581" d="M90 440v400h404v-400h-404z" />
<glyph unicode="&#xb8;" d="M225 -223l195 264h252l-140 -395z" />
<glyph unicode="&#xb9;" horiz-adv-x="665" d="M63 1581l269 90h166v-817h-226v600l-155 -49z" />
<glyph unicode="&#xba;" horiz-adv-x="798" d="M70 1124v4q0 66 24.5 123.5t69.5 100.5t105.5 67.5t131.5 24.5q72 0 132.5 -24.5t104.5 -66.5t68.5 -99.5t24.5 -123.5v-4q0 -66 -25.5 -123t-69.5 -100t-105.5 -67.5t-133.5 -24.5t-132 24.5t-103 66.5t-67.5 99.5t-24.5 122.5zM104 555v156h590v-156h-590zM276 1126 q0 -57 35 -96t90 -39q57 0 90 38t33 95v4q0 57 -35.5 96.5t-91.5 39.5q-55 0 -88 -38t-33 -96v-4z" />
<glyph unicode="&#xbb;" horiz-adv-x="1294" d="M63 193l240 356l-240 356l252 127l390 -473v-20l-390 -471zM625 193l241 356l-241 356l252 127l356 -434v-98l-356 -432z" />
<glyph unicode="&#xbc;" horiz-adv-x="1689" d="M59 1356l269 90h166v-817h-226v600l-155 -49zM248 0l524 750l449 684h170l-523 -750l-450 -684h-170zM932 332l354 481h250v-502h98v-164h-98v-151h-215v151h-365zM1118 307h209v287z" />
<glyph unicode="&#xbd;" horiz-adv-x="1689" d="M59 1356l269 90h166v-817h-226v600l-155 -49zM227 0l525 750l448 684h170l-522 -750l-451 -684h-170zM979 655q59 78 136 124t194 46q137 0 219 -69.5t82 -180.5q0 -90 -42 -148t-128 -122l-158 -119h334v-186h-633v178l299 234q53 41 76.5 71.5t23.5 67.5 q0 35 -24.5 56.5t-63.5 21.5q-43 0 -83 -25.5t-85 -77.5z" />
<glyph unicode="&#xbe;" horiz-adv-x="1843" d="M61 735l123 148q47 -41 99.5 -64.5t109.5 -23.5q47 0 78 22.5t31 63.5q0 84 -137 84h-97l-30 116l204 168h-323v185h588v-164l-215 -170q96 -12 163.5 -64.5t67.5 -158.5q0 -61 -23.5 -111.5t-66.5 -86.5t-101.5 -54.5t-128.5 -18.5q-115 0 -196.5 35t-145.5 94zM391 0 l524 750l449 684h170l-522 -750l-451 -684h-170zM1085 332l355 481h250v-502h98v-164h-98v-151h-215v151h-365zM1272 307h209v287z" />
<glyph unicode="&#xbf;" horiz-adv-x="1107" d="M45 408v4q0 96 30.5 166.5t84 121t126 83t158.5 53.5l25 131h246l53 -342l-18 -19q-178 -14 -250 -56t-72 -108v-2q0 -53 41 -82.5t115 -29.5q72 0 148.5 34.5t150.5 100.5l204 -270q-94 -92 -223 -154t-307 -62q-113 0 -207 30t-161.5 85t-105.5 135t-38 181zM397 1085 v349h404v-349h-404z" />
<glyph unicode="&#xc0;" horiz-adv-x="1628" d="M14 0l609 1444h383l610 -1444h-426l-103 258h-555l-102 -258h-416zM375 1772l370 112l224 -332h-291zM649 567h322l-160 406z" />
<glyph unicode="&#xc1;" horiz-adv-x="1628" d="M14 0l609 1444h383l610 -1444h-426l-103 258h-555l-102 -258h-416zM649 567h322l-160 406zM662 1552l221 332l370 -112l-303 -220h-288z" />
<glyph unicode="&#xc2;" horiz-adv-x="1628" d="M14 0l609 1444h383l610 -1444h-426l-103 258h-555l-102 -258h-416zM389 1546l252 305h346l252 -305h-266l-162 109l-162 -109h-260zM649 567h322l-160 406z" />
<glyph unicode="&#xc3;" horiz-adv-x="1628" d="M14 0l609 1444h383l610 -1444h-426l-103 258h-555l-102 -258h-416zM377 1587q35 154 93 229.5t165 75.5q51 0 104.5 -15t102.5 -32q41 -14 74.5 -23.5t56.5 -9.5q43 0 64.5 24t41.5 71l187 -52q-33 -154 -92.5 -228.5t-163.5 -74.5q-51 0 -104.5 14.5t-104.5 30.5 q-41 14 -74 24.5t-55 10.5q-43 0 -65.5 -23.5t-43.5 -72.5zM649 567h322l-160 406z" />
<glyph unicode="&#xc4;" horiz-adv-x="1628" d="M14 0l609 1444h383l610 -1444h-426l-103 258h-555l-102 -258h-416zM418 1552v283h338v-283h-338zM649 567h322l-160 406zM870 1552v283h338v-283h-338z" />
<glyph unicode="&#xc5;" horiz-adv-x="1628" d="M14 0l572 1358q-29 33 -44.5 72.5t-15.5 87.5q0 55 22.5 102t61.5 81t92.5 53.5t112.5 19.5t112.5 -19.5t92.5 -53.5t61.5 -81t22.5 -102q0 -94 -62 -162l574 -1356h-426l-103 258h-555l-102 -258h-416zM649 567h322l-160 406zM668 1518q0 -57 40.5 -95.5t106.5 -38.5 t107 38t41 96q0 55 -41 94t-107 39t-106.5 -39t-40.5 -94z" />
<glyph unicode="&#xc6;" horiz-adv-x="2177" d="M-10 0l758 1434h1341v-336h-715v-219h643v-314h-643v-227h725v-338h-1112v258h-463l-133 -258h-401zM684 567h303v541h-24z" />
<glyph unicode="&#xc7;" horiz-adv-x="1497" d="M80 713v4q0 156 56.5 292t157.5 237.5t238.5 158.5t301.5 57q111 0 200.5 -21.5t164.5 -61.5t135.5 -94t107.5 -120l-299 -231q-61 76 -135 122t-179 46q-76 0 -138 -30t-107 -82t-71 -121.5t-26 -147.5v-4q0 -80 26 -150.5t71 -122t107.5 -81t137.5 -29.5q55 0 101.5 12 t84.5 36t71.5 55.5t66.5 70.5l299 -213q-47 -66 -102.5 -120t-123 -96t-150.5 -68.5t-183 -35.5l-115 -329l-307 131l160 217q-119 31 -220.5 95.5t-175 158.5t-114.5 212t-41 253z" />
<glyph unicode="&#xc8;" horiz-adv-x="1368" d="M127 0v1434h1153v-336h-760v-219h688v-314h-688v-227h770v-338h-1163zM268 1751l371 113l223 -332h-291z" />
<glyph unicode="&#xc9;" horiz-adv-x="1368" d="M127 0v1434h1153v-336h-760v-219h688v-314h-688v-227h770v-338h-1163zM555 1532l221 332l371 -113l-303 -219h-289z" />
<glyph unicode="&#xca;" horiz-adv-x="1368" d="M127 0v1434h1153v-336h-760v-219h688v-314h-688v-227h770v-338h-1163zM283 1532l252 305h346l252 -305h-267l-161 108l-162 -108h-260z" />
<glyph unicode="&#xcb;" horiz-adv-x="1368" d="M127 0v1434h1153v-336h-760v-219h688v-314h-688v-227h770v-338h-1163zM311 1532v283h338v-283h-338zM764 1532v283h338v-283h-338z" />
<glyph unicode="&#xcc;" horiz-adv-x="669" d="M-104 1751l370 113l223 -332h-290zM137 0v1434h398v-1434h-398z" />
<glyph unicode="&#xcd;" horiz-adv-x="669" d="M137 0v1434h398v-1434h-398zM182 1532l221 332l371 -113l-303 -219h-289z" />
<glyph unicode="&#xce;" horiz-adv-x="669" d="M-88 1532l252 305h346l252 -305h-266l-162 108l-162 -108h-260zM137 0v1434h398v-1434h-398z" />
<glyph unicode="&#xcf;" horiz-adv-x="669" d="M-59 1532v283h338v-283h-338zM137 0v1434h398v-1434h-398zM393 1532v283h338v-283h-338z" />
<glyph unicode="&#xd0;" horiz-adv-x="1669" d="M63 565v314h164v555h555q190 0 341 -52.5t254.5 -146.5t157.5 -224t54 -286v-4q0 -156 -55 -288t-159.5 -228t-256 -150.5t-344.5 -54.5h-547v565h-164zM614 342h172q184 0 291 97.5t107 275.5v4q0 178 -106.5 276.5t-291.5 98.5h-172v-220h242v-305h-242v-227z" />
<glyph unicode="&#xd1;" horiz-adv-x="1607" d="M127 0v1434h371l589 -758v758h394v-1434h-346l-615 786v-786h-393zM367 1567q35 154 93 229.5t165 75.5q51 0 104 -15.5t102 -31.5q41 -14 75 -23.5t57 -9.5q43 0 64.5 23.5t41.5 70.5l186 -51q-33 -154 -92.5 -228.5t-163.5 -74.5q-51 0 -104 14.5t-104 30.5 q-41 14 -74 24.5t-55 10.5q-43 0 -66 -23.5t-43 -72.5z" />
<glyph unicode="&#xd2;" horiz-adv-x="1701" d="M80 713v4q0 154 58.5 290t163 237.5t245.5 159.5t307 58t307.5 -58t243.5 -158.5t160.5 -236t58.5 -288.5v-4q0 -154 -58.5 -290t-163 -237.5t-245.5 -160t-307 -58.5t-307.5 58.5t-243.5 159t-160.5 235.5t-58.5 289zM412 1772l370 112l224 -332h-291zM485 717 q0 -78 27 -147.5t76 -123t116.5 -85t149.5 -31.5t148.5 30.5t113.5 83t74 122t27 147.5v4q0 78 -27 148.5t-75 123.5t-115.5 84t-149.5 31t-149.5 -31t-114.5 -83t-74 -121.5t-27 -147.5v-4z" />
<glyph unicode="&#xd3;" horiz-adv-x="1701" d="M80 713v4q0 154 58.5 290t163 237.5t245.5 159.5t307 58t307.5 -58t243.5 -158.5t160.5 -236t58.5 -288.5v-4q0 -154 -58.5 -290t-163 -237.5t-245.5 -160t-307 -58.5t-307.5 58.5t-243.5 159t-160.5 235.5t-58.5 289zM485 717q0 -78 27 -147.5t76 -123t116.5 -85 t149.5 -31.5t148.5 30.5t113.5 83t74 122t27 147.5v4q0 78 -27 148.5t-75 123.5t-115.5 84t-149.5 31t-149.5 -31t-114.5 -83t-74 -121.5t-27 -147.5v-4zM698 1552l222 332l370 -112l-303 -220h-289z" />
<glyph unicode="&#xd4;" horiz-adv-x="1701" d="M80 713v4q0 154 58.5 290t163 237.5t245.5 159.5t307 58t307.5 -58t243.5 -158.5t160.5 -236t58.5 -288.5v-4q0 -154 -58.5 -290t-163 -237.5t-245.5 -160t-307 -58.5t-307.5 58.5t-243.5 159t-160.5 235.5t-58.5 289zM426 1552l252 306h346l252 -306h-266l-162 109 l-162 -109h-260zM485 717q0 -78 27 -147.5t76 -123t116.5 -85t149.5 -31.5t148.5 30.5t113.5 83t74 122t27 147.5v4q0 78 -27 148.5t-75 123.5t-115.5 84t-149.5 31t-149.5 -31t-114.5 -83t-74 -121.5t-27 -147.5v-4z" />
<glyph unicode="&#xd5;" horiz-adv-x="1701" d="M80 713v4q0 154 58.5 290t163 237.5t245.5 159.5t307 58t307.5 -58t243.5 -158.5t160.5 -236t58.5 -288.5v-4q0 -154 -58.5 -290t-163 -237.5t-245.5 -160t-307 -58.5t-307.5 58.5t-243.5 159t-160.5 235.5t-58.5 289zM414 1587q35 154 93 229.5t165 75.5q51 0 104 -15 t103 -32q41 -14 74.5 -23.5t56.5 -9.5q43 0 64.5 24t41.5 71l187 -52q-33 -154 -92.5 -228.5t-163.5 -74.5q-51 0 -104.5 14.5t-104.5 30.5q-41 14 -74 24.5t-55 10.5q-43 0 -65.5 -23.5t-43.5 -72.5zM485 717q0 -78 27 -147.5t76 -123t116.5 -85t149.5 -31.5t148.5 30.5 t113.5 83t74 122t27 147.5v4q0 78 -27 148.5t-75 123.5t-115.5 84t-149.5 31t-149.5 -31t-114.5 -83t-74 -121.5t-27 -147.5v-4z" />
<glyph unicode="&#xd6;" horiz-adv-x="1701" d="M80 713v4q0 154 58.5 290t163 237.5t245.5 159.5t307 58t307.5 -58t243.5 -158.5t160.5 -236t58.5 -288.5v-4q0 -154 -58.5 -290t-163 -237.5t-245.5 -160t-307 -58.5t-307.5 58.5t-243.5 159t-160.5 235.5t-58.5 289zM455 1552v283h338v-283h-338zM485 717 q0 -78 27 -147.5t76 -123t116.5 -85t149.5 -31.5t148.5 30.5t113.5 83t74 122t27 147.5v4q0 78 -27 148.5t-75 123.5t-115.5 84t-149.5 31t-149.5 -31t-114.5 -83t-74 -121.5t-27 -147.5v-4zM907 1552v283h338v-283h-338z" />
<glyph unicode="&#xd7;" horiz-adv-x="1310" d="M115 1024l237 238l307 -314l306 314l231 -232l-313 -305l313 -305l-238 -238l-305 314l-305 -314l-231 232l313 305z" />
<glyph unicode="&#xd8;" horiz-adv-x="1701" d="M63 -10l203 231q-90 98 -138 223t-48 269v4q0 154 58.5 290t163 237.5t245.5 159.5t307 58q115 0 216 -27.5t190 -78.5l79 88h301l-204 -232q90 -98 139 -224t49 -267v-4q0 -154 -58.5 -290t-163 -237.5t-245.5 -160t-307 -58.5q-115 0 -217.5 28t-188.5 79l-79 -88h-302 zM479 717q0 -111 49 -199l488 555q-78 39 -166 39q-84 0 -152.5 -31.5t-117 -85t-75 -124t-26.5 -150.5v-4zM686 360q72 -38 168 -38q82 0 150.5 31.5t117.5 85t76 124t27 150.5v4q0 109 -51 201z" />
<glyph unicode="&#xd9;" horiz-adv-x="1552" d="M111 629v805h401v-797q0 -156 71.5 -230.5t192.5 -74.5q123 0 194.5 71.5t71.5 223.5v807h402v-795q0 -172 -48 -298t-135 -208t-211 -121t-278 -39q-152 0 -274.5 39t-208.5 120t-132 205t-46 292zM336 1751l371 113l223 -332h-291z" />
<glyph unicode="&#xda;" horiz-adv-x="1552" d="M111 629v805h401v-797q0 -156 71.5 -230.5t192.5 -74.5q123 0 194.5 71.5t71.5 223.5v807h402v-795q0 -172 -48 -298t-135 -208t-211 -121t-278 -39q-152 0 -274.5 39t-208.5 120t-132 205t-46 292zM623 1532l221 332l370 -113l-303 -219h-288z" />
<glyph unicode="&#xdb;" horiz-adv-x="1552" d="M111 629v805h401v-797q0 -156 71.5 -230.5t192.5 -74.5q123 0 194.5 71.5t71.5 223.5v807h402v-795q0 -172 -48 -298t-135 -208t-211 -121t-278 -39q-152 0 -274.5 39t-208.5 120t-132 205t-46 292zM352 1532l252 305h346l252 -305h-266l-162 108l-162 -108h-260z" />
<glyph unicode="&#xdc;" horiz-adv-x="1552" d="M111 629v805h401v-797q0 -156 71.5 -230.5t192.5 -74.5q123 0 194.5 71.5t71.5 223.5v807h402v-795q0 -172 -48 -298t-135 -208t-211 -121t-278 -39q-152 0 -274.5 39t-208.5 120t-132 205t-46 292zM381 1532v283h338v-283h-338zM834 1532v283h337v-283h-337z" />
<glyph unicode="&#xdd;" horiz-adv-x="1480" d="M-4 1434h453l294 -523l297 523h445l-545 -891v-543h-397v537zM588 1532l221 332l371 -113l-303 -219h-289z" />
<glyph unicode="&#xde;" horiz-adv-x="1396" d="M127 0v1434h397v-205h219q135 0 245 -33t187.5 -96.5t119.5 -156.5t42 -212v-4q0 -127 -46 -222t-128 -159.5t-194.5 -97.5t-245.5 -33h-199v-215h-397zM524 532h191q104 0 165.5 50.5t61.5 136.5v4q0 92 -61.5 140t-167.5 48h-189v-379z" />
<glyph unicode="&#xdf;" horiz-adv-x="1300" d="M104 0v981q0 121 36 219t106.5 168t175 107.5t240.5 37.5q119 0 214 -32.5t161.5 -91t101.5 -136t35 -166.5v-4q0 -127 -62.5 -208.5t-150.5 -126.5q51 -16 102 -45t91 -72t65.5 -100.5t25.5 -131.5v-4q0 -102 -46 -180t-128 -130t-194.5 -75.5t-247.5 -15.5v278 q111 6 171 49.5t60 116.5v4q0 74 -63.5 115t-167.5 51v207q68 35 118 89t50 132v4q0 68 -40 109t-102 41q-72 0 -117.5 -51.5t-45.5 -147.5v-991h-388z" />
<glyph unicode="&#xe0;" horiz-adv-x="1226" d="M51 317v5q0 86 32 151.5t88 109.5t136 65.5t178 21.5q78 0 149 -12.5t118 -30.5v18q0 88 -54.5 135t-167.5 47q-88 0 -159.5 -16t-147.5 -45l-80 272q94 39 200 62.5t249 23.5q150 0 253 -34.5t169 -100.5q63 -61 91 -148t28 -204v-637h-383v117q-59 -63 -138 -102.5 t-190 -39.5q-80 0 -147.5 22.5t-116.5 67t-78 108t-29 144.5zM199 1473l360 116l211 -377h-270zM424 340q0 -57 39 -89t98 -32q86 0 140.5 49t54.5 133v52q-31 12 -71 20t-83 8q-86 0 -132 -36.5t-46 -100.5v-4z" />
<glyph unicode="&#xe1;" horiz-adv-x="1226" d="M51 317v5q0 86 32 151.5t88 109.5t136 65.5t178 21.5q78 0 149 -12.5t118 -30.5v18q0 88 -54.5 135t-167.5 47q-88 0 -159.5 -16t-147.5 -45l-80 272q94 39 200 62.5t249 23.5q150 0 253 -34.5t169 -100.5q63 -61 91 -148t28 -204v-637h-383v117q-59 -63 -138 -102.5 t-190 -39.5q-80 0 -147.5 22.5t-116.5 67t-78 108t-29 144.5zM424 340q0 -57 39 -89t98 -32q86 0 140.5 49t54.5 133v52q-31 12 -71 20t-83 8q-86 0 -132 -36.5t-46 -100.5v-4zM473 1212l213 377l361 -116l-304 -261h-270z" />
<glyph unicode="&#xe2;" horiz-adv-x="1226" d="M51 317v5q0 86 32 151.5t88 109.5t136 65.5t178 21.5q78 0 149 -12.5t118 -30.5v18q0 88 -54.5 135t-167.5 47q-88 0 -159.5 -16t-147.5 -45l-80 272q94 39 200 62.5t249 23.5q150 0 253 -34.5t169 -100.5q63 -61 91 -148t28 -204v-637h-383v117q-59 -63 -138 -102.5 t-190 -39.5q-80 0 -147.5 22.5t-116.5 67t-78 108t-29 144.5zM201 1212l262 336h315l262 -336h-249l-173 125l-172 -125h-245zM424 340q0 -57 39 -89t98 -32q86 0 140.5 49t54.5 133v52q-31 12 -71 20t-83 8q-86 0 -132 -36.5t-46 -100.5v-4z" />
<glyph unicode="&#xe3;" horiz-adv-x="1226" d="M51 317v5q0 86 32 151.5t88 109.5t136 65.5t178 21.5q78 0 149 -12.5t118 -30.5v18q0 88 -54.5 135t-167.5 47q-88 0 -159.5 -16t-147.5 -45l-80 272q94 39 200 62.5t249 23.5q150 0 253 -34.5t169 -100.5q63 -61 91 -148t28 -204v-637h-383v117q-59 -63 -138 -102.5 t-190 -39.5q-80 0 -147.5 22.5t-116.5 67t-78 108t-29 144.5zM197 1247q35 154 92 229.5t162 75.5q51 0 101 -14t91 -31q41 -14 73 -24t54 -10q43 0 63.5 23.5t40.5 70.5l187 -51q-33 -154 -90.5 -229t-163.5 -75q-49 0 -99.5 13.5t-91.5 29.5t-73.5 26.5t-55.5 10.5 q-43 0 -63.5 -23.5t-40.5 -72.5zM424 340q0 -57 39 -89t98 -32q86 0 140.5 49t54.5 133v52q-31 12 -71 20t-83 8q-86 0 -132 -36.5t-46 -100.5v-4z" />
<glyph unicode="&#xe4;" horiz-adv-x="1226" d="M51 317v5q0 86 32 151.5t88 109.5t136 65.5t178 21.5q78 0 149 -12.5t118 -30.5v18q0 88 -54.5 135t-167.5 47q-88 0 -159.5 -16t-147.5 -45l-80 272q94 39 200 62.5t249 23.5q150 0 253 -34.5t169 -100.5q63 -61 91 -148t28 -204v-637h-383v117q-59 -63 -138 -102.5 t-190 -39.5q-80 0 -147.5 22.5t-116.5 67t-78 108t-29 144.5zM242 1212v291h329v-291h-329zM424 340q0 -57 39 -89t98 -32q86 0 140.5 49t54.5 133v52q-31 12 -71 20t-83 8q-86 0 -132 -36.5t-46 -100.5v-4zM670 1212v291h331v-291h-331z" />
<glyph unicode="&#xe5;" horiz-adv-x="1226" d="M51 317v5q0 86 32 151.5t88 109.5t136 65.5t178 21.5q78 0 149 -12.5t118 -30.5v18q0 88 -54.5 135t-167.5 47q-88 0 -159.5 -16t-147.5 -45l-80 272q94 39 200 62.5t249 23.5q150 0 253 -34.5t169 -100.5q63 -61 91 -148t28 -204v-637h-383v117q-59 -63 -138 -102.5 t-190 -39.5q-80 0 -147.5 22.5t-116.5 67t-78 108t-29 144.5zM350 1475q0 55 21.5 102t58.5 82t86 55.5t105 20.5q57 0 106 -20.5t86 -55.5t58.5 -82t21.5 -102t-21.5 -102.5t-58.5 -82.5t-86 -55.5t-106 -20.5q-55 0 -104.5 20.5t-86.5 55.5t-58.5 82t-21.5 103zM424 340 q0 -57 39 -89t98 -32q86 0 140.5 49t54.5 133v52q-31 12 -71 20t-83 8q-86 0 -132 -36.5t-46 -100.5v-4zM481 1475q0 -59 40.5 -100.5t99.5 -41.5t100 41t41 101q0 59 -41 101t-100 42t-99.5 -42t-40.5 -101z" />
<glyph unicode="&#xe6;" horiz-adv-x="1925" d="M51 317v5q0 86 32 151.5t88 109.5t136 65.5t178 21.5q78 0 149 -12.5t118 -30.5v18q0 88 -54.5 135t-167.5 47q-88 0 -159.5 -16t-147.5 -45l-80 272q94 39 200 62.5t249 23.5q135 0 225 -32.5t150 -92.5q68 63 154.5 98.5t193.5 35.5q137 0 240.5 -49.5t172 -132.5 t102.5 -192.5t34 -232.5q0 -18 -1 -38.5t-3 -41.5h-742q25 -92 87.5 -137t152.5 -45q72 0 130 26.5t118 86.5l213 -178q-80 -102 -197 -164t-283 -62q-133 0 -244.5 44t-189.5 124q-98 -74 -208.5 -120t-235.5 -46q-84 0 -159 21.5t-130 64.5t-88 107.5t-33 148.5zM424 340 q0 -55 41 -86t102 -31q111 0 224 90q-27 63 -37 140q-31 12 -70 20t-82 8q-86 0 -132 -36.5t-46 -100.5v-4zM1114 645h385q-10 92 -61.5 146.5t-130.5 54.5q-78 0 -128.5 -54.5t-64.5 -146.5z" />
<glyph unicode="&#xe7;" horiz-adv-x="1165" d="M61 549v4q0 117 43 222.5t122 184t187.5 124.5t239.5 46q172 0 287 -67.5t186 -177.5l-262 -197q-41 53 -89 85t-118 32q-47 0 -88 -19.5t-69.5 -53.5t-45 -79t-16.5 -96v-4q0 -53 16.5 -99t45 -80t69.5 -53.5t90 -19.5q72 0 120 30.5t93 84.5l261 -189 q-70 -102 -169.5 -168.5t-248.5 -81.5l-117 -331l-307 131l166 225q-90 29 -163 82t-124 125t-80 159t-29 181z" />
<glyph unicode="&#xe8;" horiz-adv-x="1241" d="M61 549v4q0 121 41 226.5t116 184t177.5 124t225.5 45.5q143 0 247.5 -49.5t173 -132.5t102.5 -192.5t34 -232.5v-38.5t-2 -41.5h-742q23 -92 85.5 -137t154.5 -45q72 0 129 26.5t117 86.5l215 -178q-80 -102 -197 -164t-283 -62q-131 0 -239.5 42t-187 118t-123 181.5 t-44.5 234.5zM201 1473l360 116l211 -377h-270zM428 645h387q-10 92 -62.5 146.5t-131.5 54.5q-78 0 -127.5 -54.5t-65.5 -146.5z" />
<glyph unicode="&#xe9;" horiz-adv-x="1241" d="M61 549v4q0 121 41 226.5t116 184t177.5 124t225.5 45.5q143 0 247.5 -49.5t173 -132.5t102.5 -192.5t34 -232.5v-38.5t-2 -41.5h-742q23 -92 85.5 -137t154.5 -45q72 0 129 26.5t117 86.5l215 -178q-80 -102 -197 -164t-283 -62q-131 0 -239.5 42t-187 118t-123 181.5 t-44.5 234.5zM428 645h387q-10 92 -62.5 146.5t-131.5 54.5q-78 0 -127.5 -54.5t-65.5 -146.5zM475 1212l213 377l361 -116l-304 -261h-270z" />
<glyph unicode="&#xea;" horiz-adv-x="1241" d="M61 549v4q0 121 41 226.5t116 184t177.5 124t225.5 45.5q143 0 247.5 -49.5t173 -132.5t102.5 -192.5t34 -232.5v-38.5t-2 -41.5h-742q23 -92 85.5 -137t154.5 -45q72 0 129 26.5t117 86.5l215 -178q-80 -102 -197 -164t-283 -62q-131 0 -239.5 42t-187 118t-123 181.5 t-44.5 234.5zM203 1212l262 336h315l262 -336h-249l-172 125l-172 -125h-246zM428 645h387q-10 92 -62.5 146.5t-131.5 54.5q-78 0 -127.5 -54.5t-65.5 -146.5z" />
<glyph unicode="&#xeb;" horiz-adv-x="1241" d="M61 549v4q0 121 41 226.5t116 184t177.5 124t225.5 45.5q143 0 247.5 -49.5t173 -132.5t102.5 -192.5t34 -232.5v-38.5t-2 -41.5h-742q23 -92 85.5 -137t154.5 -45q72 0 129 26.5t117 86.5l215 -178q-80 -102 -197 -164t-283 -62q-131 0 -239.5 42t-187 118t-123 181.5 t-44.5 234.5zM244 1212v291h329v-291h-329zM428 645h387q-10 92 -62.5 146.5t-131.5 54.5q-78 0 -127.5 -54.5t-65.5 -146.5zM672 1212v291h332v-291h-332z" />
<glyph unicode="&#xec;" horiz-adv-x="616" d="M-115 1464l361 117l211 -377h-271zM115 0v1108h387v-1108h-387z" />
<glyph unicode="&#xed;" horiz-adv-x="616" d="M115 0v1108h387v-1108h-387zM160 1204l213 377l360 -117l-303 -260h-270z" />
<glyph unicode="&#xee;" horiz-adv-x="616" d="M-113 1204l263 336h315l262 -336h-250l-172 125l-172 -125h-246zM115 0v1108h387v-1108h-387z" />
<glyph unicode="&#xef;" horiz-adv-x="616" d="M-72 1204v291h330v-291h-330zM115 0v1108h387v-1108h-387zM356 1204v291h332v-291h-332z" />
<glyph unicode="&#xf0;" horiz-adv-x="1345" d="M61 571v4q0 117 36 214.5t98.5 168t148.5 109.5t188 39q84 0 141.5 -20.5t117.5 -55.5q-29 45 -69 93t-87 96l-246 -58l-59 170l143 33q-45 35 -91 68.5t-91 62.5h489l62 -49l229 53l57 -168l-131 -31q125 -135 205 -305t80 -368v-4q0 -139 -43 -258t-123 -206 t-192.5 -136.5t-253.5 -49.5q-133 0 -245 44t-192.5 124t-126 189.5t-45.5 240.5zM438 551q0 -51 17.5 -96t49.5 -79t75 -53.5t94 -19.5q53 0 96 19.5t73.5 52.5t47 78t16.5 94v4q0 51 -17.5 97t-49 80t-75.5 53.5t-95 19.5q-53 0 -96.5 -19.5t-73 -53.5t-46 -78t-16.5 -95 v-4z" />
<glyph unicode="&#xf1;" horiz-adv-x="1298" d="M104 0v1108h390v-156q27 35 59.5 68t73.5 57.5t90 40t108 15.5q178 0 277.5 -109t99.5 -299v-725h-387v600q0 92 -43 140t-115 48t-117.5 -48t-45.5 -140v-600h-390zM227 1247q35 154 92.5 229.5t161.5 75.5q51 0 101.5 -14t91.5 -31q41 -14 72.5 -24t54.5 -10 q43 0 63.5 23.5t40.5 70.5l187 -51q-33 -154 -90.5 -229t-163.5 -75q-49 0 -99.5 13.5t-91.5 29.5t-73.5 26.5t-55.5 10.5q-43 0 -63.5 -23.5t-40.5 -72.5z" />
<glyph unicode="&#xf2;" horiz-adv-x="1343" d="M61 549v4q0 119 46.5 224.5t127 184t193.5 125t246 46.5t244.5 -46.5t193.5 -124t127 -182t45 -223.5v-4q0 -119 -46 -224.5t-128 -184t-194.5 -125t-245.5 -46.5t-244 45t-192.5 124t-127 183.5t-45.5 223.5zM248 1473l360 116l211 -377h-270zM438 553q0 -51 17.5 -96 t49.5 -79t75 -54.5t94 -20.5q53 0 96 19.5t73.5 53.5t47 79t16.5 94v4q0 51 -17.5 97t-49 80t-75.5 54.5t-95 20.5q-53 0 -96.5 -19.5t-73 -53.5t-46 -79t-16.5 -96v-4z" />
<glyph unicode="&#xf3;" horiz-adv-x="1343" d="M61 549v4q0 119 46.5 224.5t127 184t193.5 125t246 46.5t244.5 -46.5t193.5 -124t127 -182t45 -223.5v-4q0 -119 -46 -224.5t-128 -184t-194.5 -125t-245.5 -46.5t-244 45t-192.5 124t-127 183.5t-45.5 223.5zM438 553q0 -51 17.5 -96t49.5 -79t75 -54.5t94 -20.5 q53 0 96 19.5t73.5 53.5t47 79t16.5 94v4q0 51 -17.5 97t-49 80t-75.5 54.5t-95 20.5q-53 0 -96.5 -19.5t-73 -53.5t-46 -79t-16.5 -96v-4zM522 1212l213 377l361 -116l-303 -261h-271z" />
<glyph unicode="&#xf4;" horiz-adv-x="1343" d="M61 549v4q0 119 46.5 224.5t127 184t193.5 125t246 46.5t244.5 -46.5t193.5 -124t127 -182t45 -223.5v-4q0 -119 -46 -224.5t-128 -184t-194.5 -125t-245.5 -46.5t-244 45t-192.5 124t-127 183.5t-45.5 223.5zM252 1212l262 336h315l263 -336h-250l-172 125l-172 -125 h-246zM438 553q0 -51 17.5 -96t49.5 -79t75 -54.5t94 -20.5q53 0 96 19.5t73.5 53.5t47 79t16.5 94v4q0 51 -17.5 97t-49 80t-75.5 54.5t-95 20.5q-53 0 -96.5 -19.5t-73 -53.5t-46 -79t-16.5 -96v-4z" />
<glyph unicode="&#xf5;" horiz-adv-x="1343" d="M61 549v4q0 119 46.5 224.5t127 184t193.5 125t246 46.5t244.5 -46.5t193.5 -124t127 -182t45 -223.5v-4q0 -119 -46 -224.5t-128 -184t-194.5 -125t-245.5 -46.5t-244 45t-192.5 124t-127 183.5t-45.5 223.5zM246 1247q35 154 92 229.5t162 75.5q51 0 101 -14t91 -31 q41 -14 73 -24t54 -10q43 0 63.5 23.5t41.5 70.5l186 -51q-33 -154 -90.5 -229t-163.5 -75q-49 0 -99 13.5t-91 29.5t-74 26.5t-55 10.5q-43 0 -63.5 -23.5t-41.5 -72.5zM438 553q0 -51 17.5 -96t49.5 -79t75 -54.5t94 -20.5q53 0 96 19.5t73.5 53.5t47 79t16.5 94v4 q0 51 -17.5 97t-49 80t-75.5 54.5t-95 20.5q-53 0 -96.5 -19.5t-73 -53.5t-46 -79t-16.5 -96v-4z" />
<glyph unicode="&#xf6;" horiz-adv-x="1343" d="M61 549v4q0 119 46.5 224.5t127 184t193.5 125t246 46.5t244.5 -46.5t193.5 -124t127 -182t45 -223.5v-4q0 -119 -46 -224.5t-128 -184t-194.5 -125t-245.5 -46.5t-244 45t-192.5 124t-127 183.5t-45.5 223.5zM293 1212v291h330v-291h-330zM438 553q0 -51 17.5 -96 t49.5 -79t75 -54.5t94 -20.5q53 0 96 19.5t73.5 53.5t47 79t16.5 94v4q0 51 -17.5 97t-49 80t-75.5 54.5t-95 20.5q-53 0 -96.5 -19.5t-73 -53.5t-46 -79t-16.5 -96v-4zM721 1212v291h332v-291h-332z" />
<glyph unicode="&#xf7;" horiz-adv-x="1310" d="M117 565v312h1077v-312h-1077zM473 104v330h365v-330h-365zM473 1008v329h365v-329h-365z" />
<glyph unicode="&#xf8;" horiz-adv-x="1343" d="M31 -10l170 186q-66 76 -103 171t-37 202v4q0 119 46.5 224.5t127 184t193.5 125t246 46.5q86 0 165 -20.5t146 -57.5l57 63h273l-172 -190q66 -76 103.5 -170t37.5 -201v-4q0 -119 -46 -224.5t-128 -184t-194.5 -125t-245.5 -46.5q-88 0 -166 20.5t-144 55.5l-57 -59 h-272zM422 553q0 -63 20 -111l322 359q-43 18 -94 18q-55 0 -101.5 -20.5t-79 -56t-50 -84t-17.5 -101.5v-4zM582 301q41 -14 92 -14q57 0 102 21.5t78 57t50.5 83t17.5 100.5v4q0 29 -5.5 55.5t-15.5 50.5z" />
<glyph unicode="&#xf9;" horiz-adv-x="1298" d="M96 385v723h389v-600q0 -92 43 -139t115 -47t118 47t46 139v600h387v-1108h-387v154q-27 -35 -59.5 -67t-73.5 -56.5t-90.5 -40t-108.5 -15.5q-178 0 -278.5 110t-100.5 300zM221 1464l361 117l211 -377h-271z" />
<glyph unicode="&#xfa;" horiz-adv-x="1298" d="M96 385v723h389v-600q0 -92 43 -139t115 -47t118 47t46 139v600h387v-1108h-387v154q-27 -35 -59.5 -67t-73.5 -56.5t-90.5 -40t-108.5 -15.5q-178 0 -278.5 110t-100.5 300zM496 1204l213 377l360 -117l-303 -260h-270z" />
<glyph unicode="&#xfb;" horiz-adv-x="1298" d="M96 385v723h389v-600q0 -92 43 -139t115 -47t118 47t46 139v600h387v-1108h-387v154q-27 -35 -59.5 -67t-73.5 -56.5t-90.5 -40t-108.5 -15.5q-178 0 -278.5 110t-100.5 300zM223 1204l262 336h316l262 -336h-250l-172 125l-172 -125h-246z" />
<glyph unicode="&#xfc;" horiz-adv-x="1298" d="M96 385v723h389v-600q0 -92 43 -139t115 -47t118 47t46 139v600h387v-1108h-387v154q-27 -35 -59.5 -67t-73.5 -56.5t-90.5 -40t-108.5 -15.5q-178 0 -278.5 110t-100.5 300zM264 1204v291h330v-291h-330zM692 1204v291h332v-291h-332z" />
<glyph unicode="&#xfd;" horiz-adv-x="1282" d="M25 1108h405l221 -668l209 668h400l-406 -1081q-37 -98 -77 -167t-89 -112t-111.5 -62.5t-144.5 -19.5q-104 0 -190 25.5t-164 70.5l119 273q47 -29 92 -44.5t78 -15.5q29 0 50 9.5t42 35.5zM498 1204l213 377l360 -117l-303 -260h-270z" />
<glyph unicode="&#xfe;" horiz-adv-x="1384" d="M104 -328v1823h390v-534q29 35 61.5 65.5t72.5 54t90 38t111 14.5q98 0 187.5 -40t157 -114t107.5 -180.5t40 -239.5v-4q0 -135 -40 -242.5t-106.5 -182.5t-155.5 -115t-188 -40q-63 0 -113 13.5t-91 35t-74 51t-59 60.5v-463h-390zM485 553q0 -55 17.5 -101t48.5 -80 t73 -52.5t89 -18.5t88 18.5t71.5 51t49 80t18.5 102.5v4q0 55 -18.5 101.5t-49 80t-71.5 52t-88 18.5t-89 -18.5t-73 -52t-48.5 -80t-17.5 -101.5v-4z" />
<glyph unicode="&#xff;" horiz-adv-x="1282" d="M25 1108h405l221 -668l209 668h400l-406 -1081q-37 -98 -77 -167t-89 -112t-111.5 -62.5t-144.5 -19.5q-104 0 -190 25.5t-164 70.5l119 273q47 -29 92 -44.5t78 -15.5q29 0 50 9.5t42 35.5zM268 1204v291h330v-291h-330zM696 1204v291h332v-291h-332z" />
<glyph unicode="&#x152;" horiz-adv-x="2207" d="M80 709v4q0 156 55 288t159.5 228t256 150.5t344.5 54.5h1225v-336h-715v-219h643v-314h-643v-227h725v-338h-1243q-190 0 -341 52t-254.5 146.5t-157.5 224.5t-54 286zM485 717q0 -174 107.5 -272.5t284.5 -98.5h137v744h-137q-88 0 -160 -25t-123 -73t-80 -116.5 t-29 -154.5v-4z" />
<glyph unicode="&#x153;" horiz-adv-x="2076" d="M61 549v4q0 119 46.5 224.5t127 184t190.5 125t239 46.5t232 -44.5t179 -121.5q72 78 170 122t215 44q141 0 244.5 -49.5t172.5 -132.5t102.5 -192.5t33.5 -232.5v-38.5t-2 -41.5h-741q23 -92 85 -137t154 -45q72 0 129.5 26.5t116.5 86.5l215 -178q-80 -102 -195.5 -164 t-279.5 -62q-133 0 -240.5 44t-185.5 124q-76 -78 -180.5 -123t-233.5 -45q-125 0 -233.5 45t-188 124t-126 183.5t-46.5 223.5zM438 553q0 -51 17.5 -96t48.5 -79t73 -54.5t93 -20.5t93 19.5t71.5 53.5t46 79t16.5 94v4q0 51 -17.5 97t-48 80t-73.5 54.5t-92 20.5 q-53 0 -95.5 -20.5t-71 -54.5t-45 -79t-16.5 -94v-4zM1264 645h387q-10 92 -62.5 146.5t-132.5 54.5q-78 0 -127 -54.5t-65 -146.5z" />
<glyph unicode="&#x178;" horiz-adv-x="1480" d="M-4 1434h453l294 -523l297 523h445l-545 -891v-543h-397v537zM344 1532v283h338v-283h-338zM797 1532v283h338v-283h-338z" />
<glyph unicode="&#x2c6;" d="M92 1204l262 336h316l262 -336h-250l-172 125l-172 -125h-246z" />
<glyph unicode="&#x2dc;" d="M80 1239q35 154 92 229.5t162 75.5q51 0 101 -14t91 -31q41 -14 73 -24.5t54 -10.5q43 0 63.5 23.5t41.5 71.5l186 -52q-33 -154 -90.5 -228.5t-163.5 -74.5q-49 0 -99 13.5t-91 29.5t-74 26.5t-55 10.5q-43 0 -63.5 -23.5t-41.5 -72.5z" />
<glyph unicode="&#x2000;" horiz-adv-x="953" />
<glyph unicode="&#x2001;" horiz-adv-x="1907" />
<glyph unicode="&#x2002;" horiz-adv-x="953" />
<glyph unicode="&#x2003;" horiz-adv-x="1907" />
<glyph unicode="&#x2004;" horiz-adv-x="635" />
<glyph unicode="&#x2005;" horiz-adv-x="476" />
<glyph unicode="&#x2006;" horiz-adv-x="317" />
<glyph unicode="&#x2007;" horiz-adv-x="317" />
<glyph unicode="&#x2008;" horiz-adv-x="238" />
<glyph unicode="&#x2009;" horiz-adv-x="381" />
<glyph unicode="&#x200a;" horiz-adv-x="105" />
<glyph unicode="&#x2010;" horiz-adv-x="835" d="M82 471v340h672v-340h-672z" />
<glyph unicode="&#x2011;" horiz-adv-x="835" d="M82 471v340h672v-340h-672z" />
<glyph unicode="&#x2012;" horiz-adv-x="835" d="M82 471v340h672v-340h-672z" />
<glyph unicode="&#x2013;" horiz-adv-x="1081" d="M82 475v332h917v-332h-917z" />
<glyph unicode="&#x2014;" horiz-adv-x="1839" d="M82 475v332h1675v-332h-1675z" />
<glyph unicode="&#x2018;" horiz-adv-x="581" d="M82 702v326q0 113 29.5 191.5t85 127t132.5 71t173 26.5l33 -150q-104 -10 -156.5 -59t-48.5 -133h155v-400h-403z" />
<glyph unicode="&#x2019;" horiz-adv-x="581" d="M49 842q211 25 205 192h-158v400h404v-326q0 -115 -30 -192.5t-84 -126t-132 -72t-174 -25.5z" />
<glyph unicode="&#x201a;" horiz-adv-x="581" d="M41 -193q104 10 156.5 59.5t48.5 133.5h-156v399h404v-325q0 -115 -30 -193t-85 -126t-133 -71.5t-172 -25.5z" />
<glyph unicode="&#x201c;" horiz-adv-x="1120" d="M82 702v326q0 113 28.5 190.5t83 127t131 72t173.5 26.5l30 -150q-209 -23 -198 -192h151v-400h-399zM627 702v326q0 113 28.5 190.5t83 127t130 72t171.5 26.5l33 -150q-207 -23 -201 -192h152v-400h-397z" />
<glyph unicode="&#x201d;" horiz-adv-x="1120" d="M49 842q209 25 199 192h-152v400h400v-326q0 -111 -29 -188.5t-83 -127t-131 -74t-173 -26.5zM592 842q207 25 201 192h-152v400h397v-326q0 -111 -28.5 -188.5t-83 -127t-131 -74t-170.5 -26.5z" />
<glyph unicode="&#x201e;" horiz-adv-x="1118" d="M41 -193q207 23 201 193h-152v399h397v-325q0 -113 -28.5 -191t-82.5 -127t-131 -72.5t-171 -25.5zM586 -193q209 23 198 193h-151v399h399v-325q0 -113 -28.5 -191t-83 -127t-131 -72.5t-173.5 -25.5z" />
<glyph unicode="&#x2022;" d="M166 719v4q0 72 27.5 134.5t74.5 109.5t109.5 73.5t134.5 26.5t134.5 -26.5t109.5 -73.5t74.5 -109.5t27.5 -134.5v-4q0 -72 -27.5 -134.5t-74.5 -108.5t-109.5 -73.5t-134.5 -27.5t-134.5 27.5t-109.5 73.5t-74.5 108.5t-27.5 134.5z" />
<glyph unicode="&#x2026;" horiz-adv-x="1720" d="M90 0v393h395v-393h-395zM664 0v393h395v-393h-395zM1237 0v393h395v-393h-395z" />
<glyph unicode="&#x202f;" horiz-adv-x="381" />
<glyph unicode="&#x2039;" horiz-adv-x="731" d="M61 500v98l357 434l252 -125l-242 -356l242 -356l-252 -127z" />
<glyph unicode="&#x203a;" horiz-adv-x="731" d="M63 193l240 356l-240 354l252 127l355 -432v-98l-355 -432z" />
<glyph unicode="&#x205f;" horiz-adv-x="476" />
<glyph unicode="&#x20ac;" horiz-adv-x="1396" d="M78 457v213h137v45v29.5t2 29.5h-139v211h172q27 100 80 188.5t132 152t180 100t224 36.5q166 0 288 -63.5t204 -167.5l-254 -236q-43 57 -100.5 92t-137.5 35q-78 0 -134 -37.5t-89 -103.5h322v-209h-367q-2 -14 -2 -26.5v-26.5v-24.5t2 -24.5h367v-207h-324 q31 -72 90.5 -112t145.5 -40q78 0 134 37t107 98l244 -229q-88 -115 -208 -180.5t-292 -65.5q-123 0 -226.5 36t-182 99.5t-132 152.5t-79.5 198h-164z" />
<glyph unicode="&#x2122;" horiz-adv-x="1423" d="M35 1280v154h551v-154h-189v-477h-176v477h-186zM686 803v631h184l152 -244l149 244h185v-631h-172v371l-160 -252h-8l-160 252v-371h-170z" />
<glyph unicode="&#xe000;" horiz-adv-x="1105" d="M0 0v1106h1106v-1106h-1106z" />
<glyph unicode="&#xfb01;" horiz-adv-x="1443" d="M45 797v307h129v22q0 193 94 287q51 51 121 73.5t170 22.5q88 0 147.5 -8t104.5 -22v-275q-35 10 -68.5 16.5t-76.5 6.5q-111 0 -111 -105v-26h256v-299h-248v-797h-389v797h-129zM934 1208v287h403v-287h-403zM942 0v1108h387v-1108h-387z" />
<glyph unicode="&#xfb02;" horiz-adv-x="1443" d="M45 797v307h129v22q0 193 94 287q51 51 121 73.5t170 22.5q88 0 147.5 -8t104.5 -22v-275q-35 10 -68.5 16.5t-76.5 6.5q-111 0 -111 -105v-26h256v-299h-248v-797h-389v797h-129zM942 0v1495h387v-1495h-387z" />
<glyph unicode="&#xfb03;" horiz-adv-x="2271" d="M45 797v307h129v22q0 193 94 287q51 51 121 73.5t170 22.5q88 0 147.5 -8t104.5 -22v-275q-35 10 -68.5 16.5t-76.5 6.5q-111 0 -111 -105v-26h256v-299h-248v-797h-389v797h-129zM872 797v301h129v28q0 193 95 287q51 51 120.5 73.5t169.5 22.5q88 0 147.5 -8t104.5 -22 v-275q-35 10 -68.5 16.5t-76.5 6.5q-111 0 -111 -105v-26h256v-299h-247v-797h-390v797h-129zM1761 1208v287h404v-287h-404zM1769 0v1108h388v-1108h-388z" />
<glyph unicode="&#xfb04;" horiz-adv-x="2271" d="M45 797v307h129v22q0 193 94 287q51 51 121 73.5t170 22.5q88 0 147.5 -8t104.5 -22v-275q-35 10 -68.5 16.5t-76.5 6.5q-111 0 -111 -105v-26h256v-299h-248v-797h-389v797h-129zM872 797v301h129v28q0 193 95 287q51 51 120.5 73.5t169.5 22.5q88 0 147.5 -8t104.5 -22 v-275q-35 10 -68.5 16.5t-76.5 6.5q-111 0 -111 -105v-26h256v-299h-247v-797h-390v797h-129zM1769 0v1495h388v-1495h-388z" />
</font>
</defs>
</svg>
